<svg width="245" height="129" viewBox="0 0 245 129" fill="none" xmlns="http://www.w3.org/2000/svg">
<path d="M26.4848 89.8382C26.4848 89.3804 26.1827 87.1707 26.8659 87.1707C28.2739 87.1707 28.1018 88.2367 28.4749 89.076C29.0421 90.3524 28.812 91.2801 27.247 91.3625C25.5169 91.4535 26.1175 89.6959 25.7227 88.3139" stroke="#424242" stroke-width="4" stroke-linecap="round"/>
<path d="M73.7384 91.3622C71.9332 91.3622 70.9543 91.0581 71.0709 89.0758C71.1166 88.2992 73.3651 87.1859 73.7384 87.9326" stroke="#424242" stroke-width="4" stroke-linecap="round"/>
<path d="M43.6756 117.789C43.6756 115.836 39.9988 114.949 38.5222 114.949C36.7964 114.949 35.0682 114.922 33.3426 114.949C30.7689 114.989 28.0393 116.773 25.8492 117.973C22.5078 119.803 19.5554 122.268 16.8834 124.94C16.2745 125.549 15.2979 126.737 14.333 126.781C12.1219 126.881 9.77814 126.69 7.72042 125.808C6.10318 125.115 4.55367 124.159 3.36899 122.85C1.68884 120.993 2.02807 117.712 2.02807 115.436C2.02807 111.084 4.71296 109.832 8.40403 108.678C11.986 107.559 14.2308 116.842 9.83698 116.842" stroke="#424242" stroke-width="4" stroke-linecap="round"/>
<path d="M54.0898 118.262C54.2449 116.712 56.7158 116.132 57.9812 116.132C59.6168 116.132 61.2244 116.109 62.8453 116.369C64.3792 116.615 67.2918 116.785 68.5245 117.894C70.7743 119.919 74.2572 121.494 77.1879 122.18C79.4811 122.716 81.4556 123.337 83.8005 123.586C85.6905 123.788 88.9919 124.643 90.7418 123.573C93.451 121.918 94.6395 117.81 93.7391 114.844C92.8917 112.053 91.8658 111.192 89.1379 110.572C87.8587 110.281 84.9122 110.735 84.8522 112.294C84.7932 113.829 83.9441 115.323 85.5621 116.132" stroke="#424242" stroke-width="4" stroke-linecap="round"/>
<path d="M7.66113 52.2884C7.72247 52.7791 9.76209 53.5567 10.1921 53.7688C13.7153 55.5062 17.5498 57.1687 21.3189 58.3054C26.1865 59.7734 31.1654 61.8058 36.1944 62.5794C48.3648 64.4518 60.0982 67.4076 72.6071 66.0178C79.0152 65.3057 85.3031 60.4916 88.8914 55.3924C90.4244 53.2138 91.0218 51.9103 88.1989 50.7602C84.399 49.2121 80.5235 47.9905 76.4275 47.9905" stroke="#424242" stroke-width="4" stroke-linecap="round"/>
<path d="M8.52148 50.1395C8.82202 47.4347 15.1496 46.9049 17.1173 47.5608" stroke="#424242" stroke-width="4" stroke-linecap="round"/>
<path d="M20.985 50.5694C19.1746 48.5579 17.9906 45.1236 17.1169 42.5944C15.7724 38.7025 13.6971 35.157 11.9833 31.4438C9.97395 27.0902 5.35129 19.1062 9.69107 15.0879C16.4491 8.83049 25.105 6.10244 34.0697 4.24767C43.78 2.23863 52.5223 2.00321 62.3403 2.00321C65.9765 2.00321 72.8403 1.76183 74.9236 5.4654C78.4066 11.6574 77.7172 20.1139 77.7172 27.0743C77.7172 35.771 77.2874 44.5325 77.2874 53.1482" stroke="#424242" stroke-width="4" stroke-linecap="round"/>
<path d="M14.8701 34.0388C16.0926 33.6022 16.9213 32.7915 17.9582 32.0392C19.3803 31.0075 21.1077 30.4132 22.75 29.8267C25.938 28.6881 29.21 27.635 32.5467 27.0344C36.0486 26.4041 39.7163 26.3879 43.2662 26.3718C48.8505 26.3466 54.4354 26.3718 60.0198 26.3718C61.6386 26.3718 63.2755 26.533 64.8708 26.8451C68.5457 27.5641 71.9628 28.6491 75.3537 29.7794" stroke="#424242" stroke-width="4" stroke-linecap="round"/>
<path d="M11.6924 28.7558C11.9067 26.0766 15.7089 24.9229 17.7007 24.0648C20.8609 22.7035 23.9418 21.8687 27.2112 20.884C30.0591 20.0262 33.0126 20.1828 35.8541 19.5024C39.832 18.5499 44.185 18.2024 48.2724 18.0726C50.881 17.9898 53.5025 18.0565 56.1121 18.0565C58.766 18.0565 61.8242 17.6279 64.4338 18.2172C66.6342 18.714 68.8616 19.3728 71.0847 19.7594C72.7335 20.0462 74.9428 20.5813 76.1773 21.8157" stroke="#424242" stroke-width="4" stroke-linecap="round"/>
<path d="M185.206 99.5801C183.374 99.7327 181.466 99.9126 179.666 100.273C178.197 100.567 177.893 101.343 176.723 101.831C174.315 102.834 179.434 104.939 180.034 105.055C195.29 108.008 210.213 106.776 225.524 105.445C229.889 105.065 233.873 104.106 238.163 103.281C239.504 103.023 242.056 102.101 242.772 100.749C244.017 98.3969 239.813 97.6936 238.487 97.6107C231.898 97.1989 225.328 97.2428 218.707 97.2428" stroke="#424242" stroke-width="3" stroke-linecap="round"/>
<path d="M194.166 100.749C196.481 102.433 201.71 101.528 204.489 101.528C206.997 101.528 208.986 100.743 211.306 99.9695" stroke="#424242" stroke-width="3" stroke-linecap="round"/>
<path d="M193.776 98.0221C192.389 97.868 190.558 95.3021 189.707 94.2565C188.33 92.5651 187.161 91.0253 186.179 89.0626C185.143 86.9901 185.595 84.3236 185.595 82.0508" stroke="#424242" stroke-width="3" stroke-linecap="round"/>
<path d="M190.662 83.6083C196.584 84.2006 201.842 84.5064 207.759 83.6083C209.588 83.3308 217.38 81.9892 217.541 78.9338C217.603 77.7575 217.871 76.3952 216.372 76.2286C213.452 75.9042 210.312 76.22 207.413 76.51C204.024 76.8488 201.271 77.3386 198.28 78.9338C196.55 79.8564 194.87 81.037 192.999 81.6606" stroke="#424242" stroke-width="3" stroke-linecap="round"/>
<path d="M222.213 83.2193C224.551 83.2193 226.792 82.6146 229.16 82.8514C230.726 83.008 230.425 84.8162 230.393 85.9461C230.267 90.3547 224.784 89.452 221.823 89.452" stroke="#424242" stroke-width="3" stroke-linecap="round"/>
<path d="M218.317 82.4399C218.317 84.1153 217.953 85.7459 217.928 87.4174C217.904 88.9189 218.286 90.8919 217.733 92.33C216.727 94.9453 215.173 96.5058 213.643 98.8008" stroke="#424242" stroke-width="3" stroke-linecap="round"/>
<path d="M201.771 70.7007C201.771 63.6046 203.306 59.4223 196.133 56.1119C192.342 54.362 196.097 52.1954 197.528 50.7646C199.141 49.1512 198.632 46.6426 198.632 44.5454" stroke="#424242" stroke-width="3" stroke-linecap="round"/>
<path d="M210.34 68.1845C206.02 65.8978 208.394 63.165 211.466 60.7757C212.84 59.7068 210.79 57.7004 210.79 56.02" stroke="#424242" stroke-width="3" stroke-linecap="round"/>
<path d="M241.954 101.133C241.221 101.666 240.147 101.854 239.32 102.216C237.544 102.993 235.964 104.161 234.198 104.953C233.035 105.474 232.244 106.44 231.095 106.987C228.543 108.202 226.466 110.347 223.982 111.729C222.698 112.443 221.546 113.241 220.148 113.675C216.892 114.686 213.648 114.831 210.254 114.831C207.552 114.831 204.849 114.831 202.146 114.831C198.653 114.831 196.139 113.264 193.263 111.173C190.95 109.49 188.158 109.143 185.374 108.509C183.82 108.155 182.373 107.611 180.837 107.441C179.531 107.295 178.394 106.665 177.149 106.665" stroke="#424242" stroke-width="3" stroke-linecap="round"/>
</svg>
