<svg width="76" height="137" viewBox="0 0 76 137" fill="none" xmlns="http://www.w3.org/2000/svg">
<path d="M18.9375 127.161L36.1372 126.949" stroke="#424242" stroke-width="4" stroke-linecap="round"/>
<path d="M17.7842 119.082C24.5332 119.082 31.1689 118.505 37.9836 118.505" stroke="#424242" stroke-width="4" stroke-linecap="round"/>
<path d="M18.0234 110.345C20.9628 110.345 34.6276 109.27 37.6465 110.345" stroke="#424242" stroke-width="4" stroke-linecap="round"/>
<path d="M23.5566 129.47C23.5566 133.773 23.7475 134.087 28.0454 134.087C30.2807 134.087 33.3678 133.855 33.3678 131.201" stroke="#424242" stroke-width="4" stroke-linecap="round"/>
<path d="M18.4089 101.86C18.4089 99.1107 18.4089 96.3615 18.4089 93.6123C18.4089 92.0653 18.392 90.7378 17.9252 89.2595C17.4979 87.9063 16.1017 87.056 15.5579 85.7212C14.4328 82.9597 12.3755 79.6137 10.6196 77.2192C7.42512 72.8631 7.82501 66.3538 6.95403 61.1824C6.08091 55.9983 5.35761 48.6793 7.41223 43.7711C9.5981 38.5493 14.4531 36.8352 18.3071 33.2326C21.3213 30.415 26.9102 30.362 30.7801 29.9234C35.3385 29.4068 42.844 28.1916 47.2242 30.3816C55.914 34.7266 60.5627 44.9191 60.5627 54.3095C60.5627 59.7718 59.911 64.1482 57.8135 69.2263C56.8493 71.5607 55.8567 74.4923 54.0461 76.3028C52.6523 77.6967 50.8654 78.7734 49.6169 80.2993C49.0671 80.9713 48.3215 82.1114 47.6314 82.6157C45.3864 84.2563 42.4043 85.8147 41.1149 88.3177C39.9644 90.551 39.6228 92.9791 39.4858 95.4451C39.3948 97.0827 38.5694 98.4177 38.5694 100.027" stroke="#424242" stroke-width="4" stroke-linecap="round"/>
<path d="M24.3669 100.486C25.4723 98.6893 24.8251 95.3875 24.8251 93.3835C24.8251 89.4321 24.7308 85.6523 24.0105 81.7505C23.3253 78.0389 22.5635 74.7731 21.1595 71.263C19.6376 67.4581 19.204 63.4618 17.9521 59.7063" stroke="#424242" stroke-width="2" stroke-linecap="round"/>
<path d="M33.5304 100.486C33.3656 94.5538 32.3191 88.5045 33.7849 82.6414C34.7475 78.7912 36.1257 74.8293 37.6541 71.1611C38.5912 68.9121 39.5862 66.4624 40.8615 64.3901C41.9823 62.5687 43.2702 61.382 44.527 59.7063" stroke="#424242" stroke-width="2" stroke-linecap="round"/>
<path d="M22.5352 62.9131C22.5352 61.4137 22.2606 57.6579 23.5534 56.6002C24.6201 55.7274 28.4527 63.0853 30.3244 62.1494C32.0621 61.2806 32.8806 57.5176 34.8809 60.393C36.5959 62.8583 37.4445 62.9387 39.0301 60.1639" stroke="#424242" stroke-width="2" stroke-linecap="round"/>
<path d="M2 18.0005C3.12276 19.248 3.80996 20.5726 4.66669 22.0005" stroke="#424242" stroke-width="4" stroke-linecap="round"/>
<path d="M34 11.3334C34 7.93887 34.5241 5.237 35.3333 2" stroke="#424242" stroke-width="4" stroke-linecap="round"/>
<path d="M64.667 26.0005C68.7057 26.0005 70.6595 24.005 74.0004 22.0005" stroke="#424242" stroke-width="4" stroke-linecap="round"/>
<path d="M27.5823 93.1407C26.7121 91.9442 26.433 89.9305 25.7531 88.5464C24.5991 86.1971 23.4261 83.9054 22.5839 81.4211C20.5972 75.5603 17.79 69.9819 16.8836 63.7884C15.9601 57.4779 13.8696 48.2765 18.9681 43.1781C21.1931 40.953 25.6072 41.0724 28.5182 41.0724C31.9179 41.0724 35.3523 40.9392 38.7489 41.0936C41.0392 41.1977 44.864 41.614 46.5337 43.412C48.9489 46.0131 49.7879 49.0771 49.7879 52.4304C49.7879 59.7766 43.9779 64.8656 39.4508 70.0843C36.2557 73.7676 34.5103 77.3557 33.0274 81.9528C32.6991 82.9705 32.7307 87.5563 32.0915 84.803C29.9013 75.3681 30.14 65.1967 30.2836 55.5783C30.3478 51.2743 31.0169 46.8076 32.1766 42.6463C32.6525 40.9385 32.9255 46.479 32.9636 47.2406C33.056 49.0888 33.0035 51.2852 34.0909 52.8558C34.5658 53.5418 35.0309 53.8931 35.7924 54.1107C37.8405 54.6959 35.8884 61.1774 35.5797 62.0869C34.1879 66.1883 31.3138 68.9378 29.5179 72.6792C28.8187 74.1357 29.0546 76.2263 29.1988 77.7839C29.5876 81.9831 30.5867 86.1117 31.0067 90.3118C31.0783 91.0275 31.7338 89.5893 31.8363 89.4398C32.9222 87.8562 34.0328 86.4897 35.4521 85.1858C38.4725 82.4112 41.2323 79.876 45.0022 78.4008C47.0948 77.582 49.2344 76.1421 50.3622 74.1468C52.6806 70.0451 52.2721 65.9972 52.8508 61.5126C53.4547 56.8318 53.9993 51.9292 53.9993 47.2193C53.9993 43.5026 54.0878 40.3904 52.8508 36.9886C51.0532 32.0452 44.8653 31.7381 40.4292 30.9692C34.8356 29.9997 28.5671 29.4968 23.4134 32.2454C20.7302 33.6765 19.0143 34.6036 17.0325 37.0736C15.1891 39.3712 13.5448 41.7446 12.2468 44.3904C9.47199 50.0468 7.67383 56.2108 7.67383 62.5123C7.67383 67.5465 9.12844 71.3472 11.1195 75.8271C13.0123 80.0857 16.2072 83.6106 17.543 88.0785C18.0942 89.9222 19.3774 91.8602 19.5211 93.8001C19.686 96.0265 19.2908 97.3505 21.7544 96.2886C23.9473 95.3434 25.1355 93.4924 26.2849 91.4179C28.2765 87.8232 29.3968 83.823 30.6452 79.9322C32.2585 74.904 33.9654 69.9082 35.6223 64.8945C37.6901 58.6372 40.8962 52.6548 42.2797 46.1984C42.3862 45.7012 43.046 43.0065 41.8756 43.9225C38.0373 46.9264 34.0835 50.3533 30.6452 53.7917C29.1935 55.2434 27.9945 59.1577 27.9652 55.1104C27.9465 52.53 27.9652 49.9487 27.9652 47.3682C27.9652 46.8491 28.2632 41.1741 27.6461 43.4971C26.4825 47.8779 25.3395 52.8503 22.988 56.7694" stroke="#FFE87A" stroke-opacity="0.32" stroke-width="12" stroke-linecap="round"/>
</svg>
