<svg width="171" height="106" viewBox="0 0 171 106" fill="none" xmlns="http://www.w3.org/2000/svg">
<path d="M18.4511 64.243C17.5534 62.053 16.3521 56.1114 13.9127 55.0904C11.3269 54.0082 8.23749 54.2701 5.77428 55.2799C1.9945 56.8292 5.65702 67.5741 6.60457 69.8857C8.70064 74.9992 10.7967 80.1126 12.8928 85.2261C15.4583 91.4848 18.2164 99.6425 25.6578 101.014C39.1811 103.508 36.0497 85.5533 33.7106 78.4406" stroke="#424242" stroke-width="4" stroke-linecap="round"/>
<path d="M48.5704 93.5882C50.5115 92.161 45.2 79.7707 44.3947 77.6442C42.85 73.5652 41.0798 69.5574 39.4254 65.5216C36.4296 58.2131 27.442 36.2876 30.4379 43.5961" stroke="#424242" stroke-width="4" stroke-linecap="round"/>
<path d="M60.3856 84.0248C58.8085 80.1775 57.8891 76.0156 56.3659 72.2996" stroke="#424242" stroke-width="4" stroke-linecap="round"/>
<path d="M50.7582 64.3738C51.9903 63.8687 51.9045 63.4366 52.2265 62.1986" stroke="#424242" stroke-width="4" stroke-linecap="round"/>
<path d="M73.1378 57.559C71.2505 56.8964 64.2939 58.1898 63.9569 60.5358C63.5481 63.3807 66.0581 67.1543 67.1447 69.805C68.4423 72.9708 73.935 79.3074 77.4404 79.5694C83.2084 80.0007 83.5563 75.2991 81.9053 71.2713" stroke="#424242" stroke-width="4" stroke-linecap="round"/>
<path d="M94.492 73.1919C90.6369 63.7874 86.6631 54.4382 80.7307 46.2308C78.5721 43.2444 77.5877 39.6453 75.3924 36.6194C73.1257 33.4951 70.5704 30.4447 68.5537 27.186" stroke="#424242" stroke-width="4" stroke-linecap="round"/>
<path d="M90.6269 63.7632C88.9139 57.769 94.5045 48.8413 96.4 43.304" stroke="#424242" stroke-width="4" stroke-linecap="round"/>
<path d="M90.8981 61.9985C91.6101 60.7167 98.8262 52.5326 100.106 52.9909C103.592 54.2388 105.252 62.2781 106.548 65.4411" stroke="#424242" stroke-width="4" stroke-linecap="round"/>
<path d="M158.37 63.2197C158.37 61.9279 157.24 60.9482 156.395 60.0566C154.927 58.5069 153.596 57.0039 152.351 55.2918C150.691 53.0091 149.087 50.7749 147.319 48.5652" stroke="#424242" stroke-width="2" stroke-linecap="round"/>
<path d="M160.527 64.9002C160.727 64.2336 161.897 63.8525 162.423 63.5389C163.781 62.7292 165.103 61.812 166.373 60.8696C166.958 60.4357 167.429 59.8196 167.868 59.2546C168.416 58.5502 169.574 58.0496 169.883 57.226C170.44 55.7413 168.875 54.912 167.815 53.9828C164.728 51.2769 161.626 48.7014 158.726 45.8013C157.497 44.5728 156.547 42.7767 155.482 41.3569" stroke="#424242" stroke-width="2" stroke-linecap="round"/>
<path d="M155.722 40.3978C157.733 39.3394 159.58 37.735 160.9 35.8867C161.445 35.1239 162.587 34.0821 163.409 33.6711" stroke="#424242" stroke-width="2" stroke-linecap="round"/>
<path d="M144.434 48.5652C142.915 50.1189 140.786 52.9604 138.561 53.4901C137.349 53.7786 136.918 55.2059 135.785 55.7723" stroke="#424242" stroke-width="2" stroke-linecap="round"/>
<path d="M134.348 56.0128C134.348 50.6407 131.111 45.3604 129.316 40.424C128.711 38.759 128.127 36.7634 127.915 35.0053C127.635 32.6924 127.748 30.3491 126.9 28.1452C125.767 25.1987 123.933 22.16 123.537 18.9895C123.434 18.164 122.899 14.3728 122.096 13.9712" stroke="#424242" stroke-width="2" stroke-linecap="round"/>
<path d="M122.096 13.9712C127.901 16.5834 133.557 20.1935 139.74 21.899C142.518 22.6655 145.408 23.3293 148.148 24.1946C150.028 24.7884 152.02 25.0119 153.914 25.556C155.025 25.8752 155.881 26.4387 156.944 26.8106C158.351 27.3033 160.426 27.3167 161.495 28.3855" stroke="#424242" stroke-width="2" stroke-linecap="round"/>
<path d="M100.849 17.4651L111.519 18.0552" stroke="#424242" stroke-width="2" stroke-linecap="round"/>
<path d="M115.668 7.5862C114.022 5.93965 112.375 4.2931 107.436 1" stroke="#424242" stroke-width="2" stroke-linecap="round"/>
<path d="M127.191 7.5862C127.191 5.36622 127.191 3.2045 127.191 1" stroke="#424242" stroke-width="2" stroke-linecap="round"/>
</svg>
