<svg width="478" height="176" viewBox="0 0 478 176" fill="none" xmlns="http://www.w3.org/2000/svg">
<path d="M69.0121 152.469C76.8575 150.392 84.6814 147.54 92.593 146.789C106.11 145.506 120.001 152.507 133.408 148.957C145.346 145.796 157.571 152.713 169.414 149.577" stroke="#FFE87A" stroke-opacity="0.32" stroke-width="24"/>
<path d="M199.5 148.335C208.922 147.922 218.388 147.269 227.77 147.268C243.799 147.266 259.531 149.836 275.632 149.13C289.969 148.502 303.747 150.997 317.97 150.374" stroke="#FFE87A" stroke-opacity="0.32" stroke-width="24"/>
<path d="M3.35156 166V132.391H6.375V163.117H19.2422V166H3.35156ZM39.1172 159.414C39.1172 160.383 38.9297 161.297 38.5547 162.156C38.1953 163.016 37.6953 163.766 37.0547 164.406C36.4141 165.047 35.6641 165.555 34.8047 165.93C33.9453 166.289 33.0312 166.469 32.0625 166.469H30.1406C29.1719 166.469 28.2578 166.289 27.3984 165.93C26.5391 165.555 25.7891 165.047 25.1484 164.406C24.5078 163.766 24 163.016 23.625 162.156C23.2656 161.297 23.0859 160.383 23.0859 159.414V148.586C23.0859 147.617 23.2656 146.703 23.625 145.844C24 144.984 24.5078 144.234 25.1484 143.594C25.7891 142.953 26.5391 142.453 27.3984 142.094C28.2578 141.719 29.1719 141.531 30.1406 141.531H32.0625C33.0312 141.531 33.9453 141.719 34.8047 142.094C35.6641 142.453 36.4141 142.953 37.0547 143.594C37.6953 144.234 38.1953 144.984 38.5547 145.844C38.9297 146.703 39.1172 147.617 39.1172 148.586V154.234H25.9688V159.578C25.9688 160.156 26.0781 160.703 26.2969 161.219C26.5156 161.719 26.8125 162.156 27.1875 162.531C27.5625 162.906 28 163.203 28.5 163.422C29.0156 163.641 29.5625 163.75 30.1406 163.75H32.0625C32.6406 163.75 33.1797 163.641 33.6797 163.422C34.1953 163.203 34.6406 162.906 35.0156 162.531C35.3906 162.156 35.6875 161.719 35.9062 161.219C36.125 160.703 36.2344 160.156 36.2344 159.578V157.984L39.1172 158.453V159.414ZM36.2344 148.422C36.2344 147.844 36.125 147.305 35.9062 146.805C35.6875 146.289 35.3906 145.844 35.0156 145.469C34.6406 145.094 34.1953 144.797 33.6797 144.578C33.1797 144.359 32.6406 144.25 32.0625 144.25H30.1406C29.5625 144.25 29.0156 144.359 28.5 144.578C28 144.797 27.5625 145.094 27.1875 145.469C26.8125 145.844 26.5156 146.289 26.2969 146.805C26.0781 147.305 25.9688 147.844 25.9688 148.422V151.984H36.2344V148.422ZM53.625 166C52.75 166 51.9219 165.836 51.1406 165.508C50.375 165.18 49.7031 164.727 49.125 164.148C48.5625 163.57 48.1094 162.898 47.7656 162.133C47.4375 161.367 47.2734 160.547 47.2734 159.672V144.742H42.9609V142H47.2734V136.234L50.1562 135.766V142H56.25V144.742H50.1562V159.812C50.1562 160.297 50.2422 160.75 50.4141 161.172C50.6016 161.578 50.8516 161.938 51.1641 162.25C51.4766 162.562 51.8438 162.812 52.2656 163C52.6875 163.172 53.1406 163.258 53.625 163.258H56.25V166H53.625ZM92.5078 157.75C92.5078 158.891 92.2891 159.961 91.8516 160.961C91.4297 161.961 90.8438 162.836 90.0938 163.586C89.3438 164.336 88.4609 164.93 87.4453 165.367C86.4453 165.789 85.375 166 84.2344 166H73.5938V132.391H84.2344C85.375 132.391 86.4453 132.609 87.4453 133.047C88.4609 133.469 89.3438 134.055 90.0938 134.805C90.8438 135.555 91.4297 136.438 91.8516 137.453C92.2891 138.453 92.5078 139.523 92.5078 140.664V140.992C92.5078 141.789 92.3984 142.555 92.1797 143.289C91.9766 144.008 91.6797 144.68 91.2891 145.305C90.8984 145.93 90.4375 146.5 89.9062 147.016C89.375 147.516 88.7812 147.938 88.125 148.281C88.7812 148.625 89.375 149.055 89.9062 149.57C90.4375 150.07 90.8984 150.641 91.2891 151.281C91.6797 151.906 91.9766 152.586 92.1797 153.32C92.3984 154.039 92.5078 154.797 92.5078 155.594V157.75ZM89.4844 155.102C89.4844 154.352 89.3438 153.656 89.0625 153.016C88.7812 152.359 88.3906 151.789 87.8906 151.305C87.4062 150.82 86.8359 150.438 86.1797 150.156C85.5391 149.875 84.8438 149.734 84.0938 149.734H76.6172V163.117H84.0938C84.8438 163.117 85.5391 162.977 86.1797 162.695C86.8359 162.414 87.4062 162.031 87.8906 161.547C88.3906 161.062 88.7812 160.5 89.0625 159.859C89.3438 159.203 89.4844 158.5 89.4844 157.75V155.102ZM89.4844 140.664C89.4844 139.914 89.3438 139.219 89.0625 138.578C88.7812 137.922 88.3906 137.352 87.8906 136.867C87.4062 136.367 86.8359 135.977 86.1797 135.695C85.5391 135.414 84.8438 135.273 84.0938 135.273H76.6172V146.852H84.0938C84.8438 146.852 85.5391 146.711 86.1797 146.43C86.8359 146.148 87.4062 145.766 87.8906 145.281C88.3906 144.781 88.7812 144.211 89.0625 143.57C89.3438 142.914 89.4844 142.211 89.4844 141.461V140.664ZM113.367 159.414C113.367 160.383 113.18 161.297 112.805 162.156C112.445 163.016 111.945 163.766 111.305 164.406C110.664 165.047 109.914 165.555 109.055 165.93C108.195 166.289 107.281 166.469 106.312 166.469H104.391C103.422 166.469 102.508 166.289 101.648 165.93C100.789 165.555 100.039 165.047 99.3984 164.406C98.7578 163.766 98.25 163.016 97.875 162.156C97.5156 161.297 97.3359 160.383 97.3359 159.414V148.586C97.3359 147.617 97.5156 146.703 97.875 145.844C98.25 144.984 98.7578 144.234 99.3984 143.594C100.039 142.953 100.789 142.453 101.648 142.094C102.508 141.719 103.422 141.531 104.391 141.531H106.312C107.281 141.531 108.195 141.719 109.055 142.094C109.914 142.453 110.664 142.953 111.305 143.594C111.945 144.234 112.445 144.984 112.805 145.844C113.18 146.703 113.367 147.617 113.367 148.586V159.414ZM110.484 148.422C110.484 147.844 110.375 147.305 110.156 146.805C109.938 146.289 109.641 145.844 109.266 145.469C108.891 145.094 108.445 144.797 107.93 144.578C107.43 144.359 106.891 144.25 106.312 144.25H104.391C103.812 144.25 103.266 144.359 102.75 144.578C102.25 144.797 101.812 145.094 101.438 145.469C101.062 145.844 100.766 146.289 100.547 146.805C100.328 147.305 100.219 147.844 100.219 148.422V159.578C100.219 160.156 100.328 160.703 100.547 161.219C100.766 161.719 101.062 162.156 101.438 162.531C101.812 162.906 102.25 163.203 102.75 163.422C103.266 163.641 103.812 163.75 104.391 163.75H106.312C106.891 163.75 107.43 163.641 107.93 163.422C108.445 163.203 108.891 162.906 109.266 162.531C109.641 162.156 109.938 161.719 110.156 161.219C110.375 160.703 110.484 160.156 110.484 159.578V148.422ZM135.164 159.414C135.164 160.383 134.977 161.297 134.602 162.156C134.242 163.016 133.742 163.766 133.102 164.406C132.461 165.047 131.711 165.555 130.852 165.93C129.992 166.289 129.078 166.469 128.109 166.469H126.188C125.219 166.469 124.305 166.289 123.445 165.93C122.586 165.555 121.836 165.047 121.195 164.406C120.555 163.766 120.047 163.016 119.672 162.156C119.312 161.297 119.133 160.383 119.133 159.414V148.586C119.133 147.617 119.312 146.703 119.672 145.844C120.047 144.984 120.555 144.234 121.195 143.594C121.836 142.953 122.586 142.453 123.445 142.094C124.305 141.719 125.219 141.531 126.188 141.531H128.109C129.078 141.531 129.992 141.719 130.852 142.094C131.711 142.453 132.461 142.953 133.102 143.594C133.742 144.234 134.242 144.984 134.602 145.844C134.977 146.703 135.164 147.617 135.164 148.586V159.414ZM132.281 148.422C132.281 147.844 132.172 147.305 131.953 146.805C131.734 146.289 131.438 145.844 131.062 145.469C130.688 145.094 130.242 144.797 129.727 144.578C129.227 144.359 128.688 144.25 128.109 144.25H126.188C125.609 144.25 125.062 144.359 124.547 144.578C124.047 144.797 123.609 145.094 123.234 145.469C122.859 145.844 122.562 146.289 122.344 146.805C122.125 147.305 122.016 147.844 122.016 148.422V159.578C122.016 160.156 122.125 160.703 122.344 161.219C122.562 161.719 122.859 162.156 123.234 162.531C123.609 162.906 124.047 163.203 124.547 163.422C125.062 163.641 125.609 163.75 126.188 163.75H128.109C128.688 163.75 129.227 163.641 129.727 163.422C130.242 163.203 130.688 162.906 131.062 162.531C131.438 162.156 131.734 161.719 131.953 161.219C132.172 160.703 132.281 160.156 132.281 159.578V148.422ZM149.672 166C148.797 166 147.969 165.836 147.188 165.508C146.422 165.18 145.75 164.727 145.172 164.148C144.609 163.57 144.156 162.898 143.812 162.133C143.484 161.367 143.32 160.547 143.32 159.672V144.742H139.008V142H143.32V136.234L146.203 135.766V142H152.297V144.742H146.203V159.812C146.203 160.297 146.289 160.75 146.461 161.172C146.648 161.578 146.898 161.938 147.211 162.25C147.523 162.562 147.891 162.812 148.312 163C148.734 163.172 149.188 163.258 149.672 163.258H152.297V166H149.672ZM158.578 166V132.391H161.461V166H158.578ZM175.266 144.742C174.688 144.742 174.141 144.852 173.625 145.07C173.125 145.289 172.688 145.586 172.312 145.961C171.938 146.336 171.641 146.781 171.422 147.297C171.203 147.797 171.094 148.336 171.094 148.914V166H168.211V142H169.172L170.742 144.438C171.398 143.547 172.219 142.844 173.203 142.328C174.203 141.797 175.289 141.531 176.461 141.531H178.148V144.742H175.266ZM208.125 166L206.531 163.562C205.875 164.453 205.055 165.164 204.07 165.695C203.086 166.211 202.008 166.469 200.836 166.469H200.109C199.141 166.469 198.227 166.289 197.367 165.93C196.508 165.555 195.758 165.047 195.117 164.406C194.477 163.766 193.969 163.016 193.594 162.156C193.234 161.297 193.055 160.383 193.055 159.414V148.586C193.055 147.617 193.234 146.703 193.594 145.844C193.969 144.984 194.477 144.234 195.117 143.594C195.758 142.953 196.508 142.453 197.367 142.094C198.227 141.719 199.141 141.531 200.109 141.531H200.836C201.914 141.531 202.914 141.75 203.836 142.188C204.758 142.625 205.547 143.234 206.203 144.016V132.391H209.086V166H208.125ZM206.203 148.422C206.203 147.844 206.094 147.305 205.875 146.805C205.656 146.289 205.359 145.844 204.984 145.469C204.609 145.094 204.164 144.797 203.648 144.578C203.148 144.359 202.609 144.25 202.031 144.25H200.109C199.531 144.25 198.984 144.359 198.469 144.578C197.969 144.797 197.531 145.094 197.156 145.469C196.781 145.844 196.484 146.289 196.266 146.805C196.047 147.305 195.938 147.844 195.938 148.422V159.578C195.938 160.156 196.047 160.703 196.266 161.219C196.484 161.719 196.781 162.156 197.156 162.531C197.531 162.906 197.969 163.203 198.469 163.422C198.984 163.641 199.531 163.75 200.109 163.75H202.031C202.609 163.75 203.148 163.641 203.648 163.422C204.164 163.203 204.609 162.906 204.984 162.531C205.359 162.156 205.656 161.719 205.875 161.219C206.094 160.703 206.203 160.156 206.203 159.578V148.422ZM230.883 159.414C230.883 160.383 230.695 161.297 230.32 162.156C229.961 163.016 229.461 163.766 228.82 164.406C228.18 165.047 227.43 165.555 226.57 165.93C225.711 166.289 224.797 166.469 223.828 166.469H221.906C220.938 166.469 220.023 166.289 219.164 165.93C218.305 165.555 217.555 165.047 216.914 164.406C216.273 163.766 215.766 163.016 215.391 162.156C215.031 161.297 214.852 160.383 214.852 159.414V148.586C214.852 147.617 215.031 146.703 215.391 145.844C215.766 144.984 216.273 144.234 216.914 143.594C217.555 142.953 218.305 142.453 219.164 142.094C220.023 141.719 220.938 141.531 221.906 141.531H223.828C224.797 141.531 225.711 141.719 226.57 142.094C227.43 142.453 228.18 142.953 228.82 143.594C229.461 144.234 229.961 144.984 230.32 145.844C230.695 146.703 230.883 147.617 230.883 148.586V154.234H217.734V159.578C217.734 160.156 217.844 160.703 218.062 161.219C218.281 161.719 218.578 162.156 218.953 162.531C219.328 162.906 219.766 163.203 220.266 163.422C220.781 163.641 221.328 163.75 221.906 163.75H223.828C224.406 163.75 224.945 163.641 225.445 163.422C225.961 163.203 226.406 162.906 226.781 162.531C227.156 162.156 227.453 161.719 227.672 161.219C227.891 160.703 228 160.156 228 159.578V157.984L230.883 158.453V159.414ZM228 148.422C228 147.844 227.891 147.305 227.672 146.805C227.453 146.289 227.156 145.844 226.781 145.469C226.406 145.094 225.961 144.797 225.445 144.578C224.945 144.359 224.406 144.25 223.828 144.25H221.906C221.328 144.25 220.781 144.359 220.266 144.578C219.766 144.797 219.328 145.094 218.953 145.469C218.578 145.844 218.281 146.289 218.062 146.805C217.844 147.305 217.734 147.844 217.734 148.422V151.984H228V148.422ZM252.68 159.414C252.68 160.383 252.492 161.297 252.117 162.156C251.758 163.016 251.258 163.766 250.617 164.406C249.977 165.047 249.227 165.555 248.367 165.93C247.508 166.289 246.594 166.469 245.625 166.469H243.703C242.734 166.469 241.82 166.289 240.961 165.93C240.102 165.555 239.352 165.047 238.711 164.406C238.07 163.766 237.562 163.016 237.188 162.156C236.828 161.297 236.648 160.383 236.648 159.414V148.586C236.648 147.617 236.828 146.703 237.188 145.844C237.562 144.984 238.07 144.234 238.711 143.594C239.352 142.953 240.102 142.453 240.961 142.094C241.82 141.719 242.734 141.531 243.703 141.531H245.625C246.594 141.531 247.508 141.719 248.367 142.094C249.227 142.453 249.977 142.953 250.617 143.594C251.258 144.234 251.758 144.984 252.117 145.844C252.492 146.703 252.68 147.617 252.68 148.586V149.547L249.797 150.016V148.422C249.797 147.844 249.688 147.305 249.469 146.805C249.25 146.289 248.953 145.844 248.578 145.469C248.203 145.094 247.758 144.797 247.242 144.578C246.742 144.359 246.203 144.25 245.625 144.25H243.703C243.125 144.25 242.578 144.359 242.062 144.578C241.562 144.797 241.125 145.094 240.75 145.469C240.375 145.844 240.078 146.289 239.859 146.805C239.641 147.305 239.531 147.844 239.531 148.422V159.578C239.531 160.156 239.641 160.703 239.859 161.219C240.078 161.719 240.375 162.156 240.75 162.531C241.125 162.906 241.562 163.203 242.062 163.422C242.578 163.641 243.125 163.75 243.703 163.75H245.625C246.203 163.75 246.742 163.641 247.242 163.422C247.758 163.203 248.203 162.906 248.578 162.531C248.953 162.156 249.25 161.719 249.469 161.219C249.688 160.703 249.797 160.156 249.797 159.578V157.984L252.68 158.453V159.414ZM259.172 136.234V132.391H262.523V136.234H259.172ZM259.406 166V142H262.289V166H259.406ZM284.109 166L282.516 163.562C281.859 164.453 281.039 165.164 280.055 165.695C279.07 166.211 277.992 166.469 276.82 166.469H276.094C275.125 166.469 274.211 166.289 273.352 165.93C272.492 165.555 271.742 165.047 271.102 164.406C270.461 163.766 269.953 163.016 269.578 162.156C269.219 161.297 269.039 160.383 269.039 159.414V148.586C269.039 147.617 269.219 146.703 269.578 145.844C269.953 144.984 270.461 144.234 271.102 143.594C271.742 142.953 272.492 142.453 273.352 142.094C274.211 141.719 275.125 141.531 276.094 141.531H276.82C277.898 141.531 278.898 141.75 279.82 142.188C280.742 142.625 281.531 143.234 282.188 144.016V132.391H285.07V166H284.109ZM282.188 148.422C282.188 147.844 282.078 147.305 281.859 146.805C281.641 146.289 281.344 145.844 280.969 145.469C280.594 145.094 280.148 144.797 279.633 144.578C279.133 144.359 278.594 144.25 278.016 144.25H276.094C275.516 144.25 274.969 144.359 274.453 144.578C273.953 144.797 273.516 145.094 273.141 145.469C272.766 145.844 272.469 146.289 272.25 146.805C272.031 147.305 271.922 147.844 271.922 148.422V159.578C271.922 160.156 272.031 160.703 272.25 161.219C272.469 161.719 272.766 162.156 273.141 162.531C273.516 162.906 273.953 163.203 274.453 163.422C274.969 163.641 275.516 163.75 276.094 163.75H278.016C278.594 163.75 279.133 163.641 279.633 163.422C280.148 163.203 280.594 162.906 280.969 162.531C281.344 162.156 281.641 161.719 281.859 161.219C282.078 160.703 282.188 160.156 282.188 159.578V148.422ZM306.867 159.414C306.867 160.383 306.68 161.297 306.305 162.156C305.945 163.016 305.445 163.766 304.805 164.406C304.164 165.047 303.414 165.555 302.555 165.93C301.695 166.289 300.781 166.469 299.812 166.469H297.891C296.922 166.469 296.008 166.289 295.148 165.93C294.289 165.555 293.539 165.047 292.898 164.406C292.258 163.766 291.75 163.016 291.375 162.156C291.016 161.297 290.836 160.383 290.836 159.414V148.586C290.836 147.617 291.016 146.703 291.375 145.844C291.75 144.984 292.258 144.234 292.898 143.594C293.539 142.953 294.289 142.453 295.148 142.094C296.008 141.719 296.922 141.531 297.891 141.531H299.812C300.781 141.531 301.695 141.719 302.555 142.094C303.414 142.453 304.164 142.953 304.805 143.594C305.445 144.234 305.945 144.984 306.305 145.844C306.68 146.703 306.867 147.617 306.867 148.586V154.234H293.719V159.578C293.719 160.156 293.828 160.703 294.047 161.219C294.266 161.719 294.562 162.156 294.938 162.531C295.312 162.906 295.75 163.203 296.25 163.422C296.766 163.641 297.312 163.75 297.891 163.75H299.812C300.391 163.75 300.93 163.641 301.43 163.422C301.945 163.203 302.391 162.906 302.766 162.531C303.141 162.156 303.438 161.719 303.656 161.219C303.875 160.703 303.984 160.156 303.984 159.578V157.984L306.867 158.453V159.414ZM303.984 148.422C303.984 147.844 303.875 147.305 303.656 146.805C303.438 146.289 303.141 145.844 302.766 145.469C302.391 145.094 301.945 144.797 301.43 144.578C300.93 144.359 300.391 144.25 299.812 144.25H297.891C297.312 144.25 296.766 144.359 296.25 144.578C295.75 144.797 295.312 145.094 294.938 145.469C294.562 145.844 294.266 146.289 294.047 146.805C293.828 147.305 293.719 147.844 293.719 148.422V151.984H303.984V148.422ZM331.945 135.133C331.461 135.133 331.008 135.227 330.586 135.414C330.18 135.586 329.82 135.828 329.508 136.141C329.195 136.453 328.945 136.82 328.758 137.242C328.586 137.664 328.5 138.117 328.5 138.602V142H334.102V144.742H328.5V166H325.617V144.742H321.281V142H325.617V138.742C325.617 137.867 325.781 137.047 326.109 136.281C326.438 135.5 326.891 134.82 327.469 134.242C328.047 133.664 328.719 133.211 329.484 132.883C330.25 132.555 331.07 132.391 331.945 132.391H334.594V135.133H331.945ZM353.508 159.414C353.508 160.383 353.32 161.297 352.945 162.156C352.586 163.016 352.086 163.766 351.445 164.406C350.805 165.047 350.055 165.555 349.195 165.93C348.336 166.289 347.422 166.469 346.453 166.469H344.531C343.562 166.469 342.648 166.289 341.789 165.93C340.93 165.555 340.18 165.047 339.539 164.406C338.898 163.766 338.391 163.016 338.016 162.156C337.656 161.297 337.477 160.383 337.477 159.414V148.586C337.477 147.617 337.656 146.703 338.016 145.844C338.391 144.984 338.898 144.234 339.539 143.594C340.18 142.953 340.93 142.453 341.789 142.094C342.648 141.719 343.562 141.531 344.531 141.531H346.453C347.422 141.531 348.336 141.719 349.195 142.094C350.055 142.453 350.805 142.953 351.445 143.594C352.086 144.234 352.586 144.984 352.945 145.844C353.32 146.703 353.508 147.617 353.508 148.586V159.414ZM350.625 148.422C350.625 147.844 350.516 147.305 350.297 146.805C350.078 146.289 349.781 145.844 349.406 145.469C349.031 145.094 348.586 144.797 348.07 144.578C347.57 144.359 347.031 144.25 346.453 144.25H344.531C343.953 144.25 343.406 144.359 342.891 144.578C342.391 144.797 341.953 145.094 341.578 145.469C341.203 145.844 340.906 146.289 340.688 146.805C340.469 147.305 340.359 147.844 340.359 148.422V159.578C340.359 160.156 340.469 160.703 340.688 161.219C340.906 161.719 341.203 162.156 341.578 162.531C341.953 162.906 342.391 163.203 342.891 163.422C343.406 163.641 343.953 163.75 344.531 163.75H346.453C347.031 163.75 347.57 163.641 348.07 163.422C348.586 163.203 349.031 162.906 349.406 162.531C349.781 162.156 350.078 161.719 350.297 161.219C350.516 160.703 350.625 160.156 350.625 159.578V148.422ZM366.328 144.742C365.75 144.742 365.203 144.852 364.688 145.07C364.188 145.289 363.75 145.586 363.375 145.961C363 146.336 362.703 146.781 362.484 147.297C362.266 147.797 362.156 148.336 362.156 148.914V166H359.273V142H360.234L361.805 144.438C362.461 143.547 363.281 142.844 364.266 142.328C365.266 141.797 366.352 141.531 367.523 141.531H369.211V144.742H366.328ZM388.008 175.609H385.219L389.484 163.938L381.703 142H384.586L390.844 160.188L390.938 161.43L391.031 160.188L397.266 142H400.148L388.008 175.609ZM419.086 159.414C419.086 160.383 418.898 161.297 418.523 162.156C418.164 163.016 417.664 163.766 417.023 164.406C416.383 165.047 415.633 165.555 414.773 165.93C413.914 166.289 413 166.469 412.031 166.469H410.109C409.141 166.469 408.227 166.289 407.367 165.93C406.508 165.555 405.758 165.047 405.117 164.406C404.477 163.766 403.969 163.016 403.594 162.156C403.234 161.297 403.055 160.383 403.055 159.414V148.586C403.055 147.617 403.234 146.703 403.594 145.844C403.969 144.984 404.477 144.234 405.117 143.594C405.758 142.953 406.508 142.453 407.367 142.094C408.227 141.719 409.141 141.531 410.109 141.531H412.031C413 141.531 413.914 141.719 414.773 142.094C415.633 142.453 416.383 142.953 417.023 143.594C417.664 144.234 418.164 144.984 418.523 145.844C418.898 146.703 419.086 147.617 419.086 148.586V159.414ZM416.203 148.422C416.203 147.844 416.094 147.305 415.875 146.805C415.656 146.289 415.359 145.844 414.984 145.469C414.609 145.094 414.164 144.797 413.648 144.578C413.148 144.359 412.609 144.25 412.031 144.25H410.109C409.531 144.25 408.984 144.359 408.469 144.578C407.969 144.797 407.531 145.094 407.156 145.469C406.781 145.844 406.484 146.289 406.266 146.805C406.047 147.305 405.938 147.844 405.938 148.422V159.578C405.938 160.156 406.047 160.703 406.266 161.219C406.484 161.719 406.781 162.156 407.156 162.531C407.531 162.906 407.969 163.203 408.469 163.422C408.984 163.641 409.531 163.75 410.109 163.75H412.031C412.609 163.75 413.148 163.641 413.648 163.422C414.164 163.203 414.609 162.906 414.984 162.531C415.359 162.156 415.656 161.719 415.875 161.219C416.094 160.703 416.203 160.156 416.203 159.578V148.422ZM439.922 166L438.328 163.562C437.672 164.453 436.852 165.164 435.867 165.695C434.883 166.211 433.805 166.469 432.633 166.469H431.906C430.938 166.469 430.023 166.289 429.164 165.93C428.305 165.555 427.555 165.047 426.914 164.406C426.273 163.766 425.766 163.016 425.391 162.156C425.031 161.297 424.852 160.383 424.852 159.414V142H427.734V159.578C427.734 160.156 427.844 160.703 428.062 161.219C428.281 161.719 428.578 162.156 428.953 162.531C429.328 162.906 429.766 163.203 430.266 163.422C430.781 163.641 431.328 163.75 431.906 163.75H433.828C434.406 163.75 434.945 163.641 435.445 163.422C435.961 163.203 436.406 162.906 436.781 162.531C437.156 162.156 437.453 161.719 437.672 161.219C437.891 160.703 438 160.156 438 159.578V142H440.883V166H439.922Z" fill="#424242"/>
<path d="M155.481 15.7293C145.411 6.56194 126.648 18.5739 120.905 20.9892C114.607 23.6379 108.701 27.3046 104.703 32.8297C99.1618 40.4879 102.323 53.2191 104.442 64.7321C107.485 81.2686 117.004 101.429 128.753 117.15C130.768 119.846 132.16 102.146 132.707 99.7115C134.195 93.0973 134.465 96.1478 137.207 90.4627" stroke="#424242" stroke-width="4" stroke-linecap="round"/>
<path d="M126.529 117.12C119.029 110.528 111.475 106.71 103.851 101.112" stroke="#424242" stroke-width="4" stroke-linecap="round"/>
<path d="M124.568 147.128C124.568 150.265 124.069 157.187 127.361 159.068C128.063 159.469 128.137 162.53 126.593 160.814C125.535 159.638 125.484 157.274 126.453 159.697C127.507 162.33 130.53 157.556 130.852 156.589C131.502 154.64 132.764 153.619 131.97 151.038C131.511 149.548 131.224 148.273 130.817 146.849C130.486 145.687 128.967 151.389 128.967 152.156" stroke="#FF3030" stroke-width="6" stroke-linecap="round"/>
<path d="M105.088 147.128C104.933 148.676 101.731 158.986 104.774 159.662C109.569 160.728 110.116 156.132 110.116 152.435C110.116 150.363 110.007 148.792 109.452 146.849C108.67 144.112 105.49 148.804 105.228 149.153C102.872 152.294 103.831 157.904 103.831 161.582" stroke="#FF3030" stroke-width="6" stroke-linecap="round"/>
</svg>
